<svg xmlns="http://www.w3.org/2000/svg" fill="none" viewBox="0 0 256 257">
  <path fill="#FFB7A3" fill-rule="evenodd" d="M143.63 5.933c1.92-4.2 7.13-7.29 11.67-5.33h-.01c6.99 2.96 6.5 13.78-.28 16.66-7.46 3.24-15.04-3.74-11.38-11.33Zm-42.56 250.13c-7.95-2.78-7.53-13.07.04-16.06 6.83-2.75 14.83 4.55 11.98 11.58-1.83 4.59-7.7 6.1-12.02 4.48Zm138.28-107.14c2.78-7.95 13.07-7.53 16.06.04 2.75 6.83-4.55 14.83-11.58 11.98-4.59-1.83-6.1-7.7-4.48-12.02ZM5.11 113.663c-4.59-1.83-6.1-7.7-4.48-12.02 2.78-7.95 13.07-7.53 16.06.04 2.75 6.83-4.55 14.83-11.58 11.98Zm181.96 119.68c-1.96-4.55 1.13-9.76 5.33-11.67 7.59-3.66 14.57 3.91 11.33 11.38-2.88 6.78-13.7 7.28-16.66.29ZM51.71 31.103c-1.96-4.55 1.13-9.76 5.33-11.67 7.59-3.66 14.57 3.91 11.33 11.38-2.88 6.78-13.7 7.28-16.66.29Zm169.4 33.19c-3.66-7.59 3.91-14.57 11.38-11.33h.01c6.77 2.88 7.27 13.7.28 16.66-4.55 1.96-9.76-1.13-11.67-5.33ZM18.87 199.653c-3.66-7.59 3.91-14.57 11.38-11.33h.01c6.77 2.88 7.27 13.7.28 16.66-4.55 1.96-9.76-1.13-11.67-5.33Zm194.48-6.03c-.14-.23-.29-.45-.44-.669-.08-.114-.16-.222-.239-.329l-.105-.141-.016-.021-.118-.154a22.096 22.096 0 0 0-.272-.346c-.144-.169-.287-.338-.434-.504a11.212 11.212 0 0 0-1.406-1.336 13.279 13.279 0 0 0-.346-.273l-.164-.126-.141-.105-.16-.119c-.06-.043-.119-.086-.179-.127-.23-.16-.45-.31-.68-.45-.05-.03-.09-.05-.14-.08-9.04-5.42-21.37 1.22-20.89 12.571.21 7.06 6.2 13.049 13.26 13.27 11.36.48 17.98-11.841 12.58-20.881l-.024-.041-.037-.062-.02-.03-.019-.027-.01-.02Zm-95.46-178.3c-9.56 9.05-2.95 24.98 10.09 25.26 8.38.39 16.19-6.54 15.91-15.17-.26-13.06-17-18.78-26-10.09Zm.97 206.97c-8.69 8.23-2.69 22.71 9.17 22.971 7.61.349 14.72-5.941 14.47-13.79-.24-11.871-15.45-17.071-23.64-9.171v-.01Zm121.82-103.39c-8.54-9.02-23.57-2.79-23.84 9.52-.36 7.9 6.17 15.27 14.32 15.011 12.32-.25 17.72-16.041 9.52-24.531Zm-229.85 9.52c-.36 7.9 6.17 15.27 14.32 15.011 12.32-.25 17.72-16.041 9.52-24.531-8.54-9.02-23.57-2.79-23.84 9.52Zm190.07-87.39c-13.36-.37-20.07 15.82-10.9 25.39 5.74 6.29 16.32 6.93 22.33.53 9.19-9.57 1.28-25.7-11.43-25.92ZM55.24 188.093c-12.15-.33-18.24 14.381-9.91 23.08 5.22 5.72 14.84 6.301 20.3.48 8.36-8.699 1.16-23.36-10.39-23.57v.01Zm-14.67-132.4c-.37 13.41 15.88 20.14 25.48 10.94 6.32-5.76 6.96-16.38.53-22.41-9.6-9.23-25.79-1.28-26.02 11.47h.01Zm121.6-9.61c6.93 3.25 15.94.14 18.72-7.24 4.34-11.11-7.77-21.78-18.41-17.59-11.22 4.29-11.22 20.04-.32 24.83h.01ZM83.1 210.323c-12.34 4.72-12.34 22.04-.35 27.31 7.62 3.58 17.53.16 20.59-7.96 4.77-12.22-8.55-23.95-20.25-19.35h.01Zm125.83-48.49c-3.67 7.83-.16 18 8.17 21.14 12.54 4.9 24.59-8.78 19.87-20.79-4.85-12.67-22.63-12.67-28.04-.36v.01Zm-181.64-59.02c11.4 4.46 22.36-7.98 18.06-18.9-4.41-11.52-20.57-11.52-25.49-.32-3.34 7.11-.15 16.36 7.43 19.22Zm202.29 1.27c12.33-5.4 11.18-23.59-.65-28.74-7.31-3.5-16.68.23-19.81 7.71-5.61 12.63 7.47 26.65 20.46 21.03Zm-190.98 50.1c-7.31-3.5-16.68.23-19.81 7.71-5.61 12.63 7.47 26.65 20.46 21.03 12.33-5.4 11.18-23.59-.65-28.74Zm44.8-108.3c11.19 4.98 23.61-6.62 18.63-18.13-4.79-10.93-20.9-9.9-25.46.57-3.1 6.48.2 14.78 6.83 17.55v.01Zm70.74 172.26c-3.41 7.12.22 16.26 7.51 19.31 12.31 5.47 25.98-7.28 20.49-19.94-5.26-12.02-22.99-10.89-28.01.63h.01Zm-41.1-205.28c-1.83 4.59-7.7 6.1-12.02 4.48-7.95-2.78-7.53-13.07.04-16.06 6.83-2.75 14.83 4.55 11.98 11.58Zm35.38 243.2c-7.95-2.78-7.53-13.07.04-16.06 6.83-2.75 14.83 4.55 11.98 11.58-1.83 4.59-7.7 6.1-12.02 4.48Zm95.41-142.46c7.03 2.85 14.33-5.15 11.58-11.98-2.99-7.57-13.28-7.99-16.06-.04-1.62 4.32-.11 10.19 4.48 12.02Zm-238.72 47.4c-4.59-1.83-6.1-7.7-4.48-12.02 2.78-7.95 13.07-7.529 16.06.04 2.75 6.83-4.55 14.83-11.58 11.98Zm220.77 27.201c-4.2 1.909-7.29 7.119-5.33 11.669 2.96 6.99 13.78 6.49 16.66-.29 3.24-7.47-3.74-15.04-11.33-11.379ZM23.56 52.914c7.59-3.66 14.57 3.91 11.33 11.38-2.88 6.78-13.7 7.28-16.66.29-1.96-4.55 1.13-9.76 5.33-11.67Zm168.84-17.46c6.83 2.76 14.83-4.54 11.98-11.58-1.83-4.6-7.7-6.1-12.02-4.48-7.96 2.78-7.53 13.07.04 16.06ZM52.35 233.132c-3.66-7.59 3.91-14.57 11.38-11.33h.01c6.77 2.881 7.27 13.7.28 16.66-4.55 1.96-9.76-1.13-11.67-5.33Zm84.56-156.52c-.15-.03-.3-.07-.44-.12v.01c-.95-.38-1.54-1.48-1.24-2.48.73-2.4 4.18-1.83 4.1.67-.03 1.04-.94 1.89-1.96 1.95-.15 0-.31 0-.46-.03Zm-53.69 15.16c.15.03.31.03.46.03 1.02-.06 1.93-.91 1.96-1.95.08-2.5-3.37-3.07-4.1-.67-.3 1 .29 2.1 1.24 2.48.14.05.29.09.44.12v-.01Zm-5.86 23.26c.73-2.4 4.18-1.83 4.1.67v.01c-.03 1.04-.94 1.89-1.96 1.95-.15 0-.31 0-.46-.03-.15-.03-.3-.07-.44-.12-.95-.38-1.54-1.48-1.24-2.48Zm100.06 4.1c-.29 1 .3 2.09 1.24 2.47.14.05.29.09.44.12.15.03.31.03.46.03 1.01-.06 1.92-.9 1.96-1.94.09-2.51-3.38-3.08-4.1-.67v-.01Zm-9.23 32.24c-.29 1 .3 2.09 1.24 2.47.14.05.29.09.44.12.15.03.31.03.46.03 1.01-.06 1.92-.9 1.96-1.94.09-2.51-3.38-3.08-4.1-.67v-.01Zm-41.57 22.08c-1-.29-2.1.3-2.48 1.25-.05.14-.09.29-.12.44-.03.15-.03.31-.03.46.06 1.02.91 1.93 1.95 1.98 2.53.09 3.1-3.4.68-4.13Zm7.85-90.48c.02-.11.04-.21.08-.3v.01c.25-.63.99-1.03 1.66-.83 1.61.49 1.23 2.8-.45 2.75-.7-.03-1.27-.64-1.31-1.32 0-.1 0-.21.02-.31Zm-41.05 36.02c1.68.05 2.06-2.26.45-2.75-.67-.2-1.41.2-1.66.83a.952.952 0 0 0-.056.178c-.009.039-.017.08-.024.122-.02.1-.02.21-.02.31.04.68.61 1.29 1.31 1.32v-.01Zm35.93 70.82c-.03-.029-.08-.1-.08-.1-.05-.08-.1-.159-.14-.25-.25-.58-.04-1.32.53-1.639.91-.54 2.06.199 1.96 1.239-.1 1.101-1.43 1.56-2.19.83l-.04-.04-.04-.04Zm-53.23-38.96c-.5-.91-1.69-1.27-2.63-.87a2.293 2.293 0 0 0-.484.292.903.903 0 0 0-.076.068c-.01.01-.023.02-.035.03l-.006.004-.03.026-.06.06c-1.18 1.21-.46 3.35 1.31 3.51 1.66.17 2.86-1.67 2.01-3.13v.01Zm13.94-4.81c.13-.09.26-.17.4-.23v-.01c.94-.4 2.13-.04 2.63.87.85 1.46-.35 3.3-2.01 3.13-1.77-.16-2.49-2.3-1.31-3.51l.06-.06a.42.42 0 0 1 .035-.03c.012-.01.025-.02.035-.03.05-.05.1-.09.16-.13Zm5.64 25.41c-.14.06-.27.14-.4.23-.06.04-.11.08-.16.13l-.006.005-.003.003-.007.007-.006.004-.013.011c-.013.01-.025.02-.035.03l-.06.06c-1.18 1.21-.46 3.35 1.31 3.51 1.66.17 2.86-1.67 2.01-3.13-.5-.91-1.69-1.27-2.63-.87v.01Zm58.9.23c.13-.09.26-.17.4-.23l-.01-.01c.94-.4 2.13-.04 2.63.87.85 1.46-.35 3.3-2.01 3.13-1.77-.16-2.49-2.3-1.31-3.51.03-.02.05-.04.07-.06.01-.01.022-.02.035-.03.012-.01.025-.02.035-.03.05-.05.1-.09.16-.13Zm21.63-87.32c-.33-.61-1.13-.85-1.75-.58-.09.04-.18.09-.27.15-.08.06-.16.13-.23.2-.45.51-.48 1.34 0 1.85 1.14 1.22 3.04-.14 2.26-1.62h-.01Zm11.03 50.71c.62-.27 1.42-.03 1.75.58h.01c.78 1.48-1.12 2.84-2.26 1.62-.48-.51-.45-1.34 0-1.85.07-.07.15-.14.23-.2a1.9 1.9 0 0 1 .27-.15Zm-79.43-56.74c-.92.5-1.28 1.7-.88 2.64a2.31 2.31 0 0 0 .53.74c.76.68 2.01.72 2.78.01 1.83-1.72-.22-4.57-2.43-3.39Zm1.74 17.24a2.302 2.302 0 0 1-.53-.74c-.4-.94-.04-2.14.88-2.64 2.21-1.18 4.26 1.67 2.43 3.39-.77.71-2.02.67-2.78-.01Zm52.66-10.81c.76.68 2.01.72 2.78.01 1.83-1.72-.22-4.57-2.43-3.39-.92.5-1.28 1.7-.88 2.64a2.31 2.31 0 0 0 .53.74Zm7.88 15.16c-.77.71-2.02.67-2.78-.01a2.31 2.31 0 0 1-.53-.74c-.4-.94-.04-2.14.88-2.64 2.21-1.18 4.26 1.67 2.43 3.39Zm-70.82 8.011c.037.011.073.016.09-.001.15.007.244-.124.33-.243.033-.047.066-.093.1-.127l.3-.376c.237-.297.478-.601.71-.874 1.45-1.7 3.12-3.19 4.84-4.61.25-.16.37-.5.17-.75l-.17-.21c-1.08-1.31-2.35-2.85-3.49-4.13-.319-.25-.586.012-.836.258-.08.078-.157.154-.234.212l-.72.64a140.435 140.435 0 0 1-2.118-2.272c-.092-.102-.196-.218-.332-.218-.149-.021-.303.133-.462.293-.065.065-.131.132-.198.187-.28.26-.85.8-1.13 1.07a.483.483 0 0 0-.137.158c-.045.082-.07.181-.033.272 0 .1.94 1.053 1.652 1.776l.456.464c.09.092.166.17.222.23l-1.15 1.17-1.05 1.17c-.29-.25-4.78-4.01-4.78-4.01a.633.633 0 0 0-.33-.12c-.2-.03-.43.18-.46.26l-.3.38-.6.77c-.033.039-.08.1-.134.17l-.047.062c-.101.13-.21.274-.27.338-.19.19-.25.53-.07.74 1.716 1.334 3.6 2.656 5.478 3.973l.022.016.014.01c1.558 1.093 3.11 2.182 4.557 3.271l.01.01s.05.027.1.041Zm-5.83 31.139c.06-.094.04-.193.019-.287a1.473 1.473 0 0 1-.013-.068.408.408 0 0 1-.006-.065l-.09-.4c-.97-4.01-1-8.18-.64-12.27.02-.2-.15-.45-.38-.5a3.586 3.586 0 0 0-.34-.037l-.01-.002a4.032 4.032 0 0 1-.22-.021l-.72-.07c-.75-.073-2.525-.22-3.675-.314l-.665-.056c-.19-.03-.43.14-.45.35l-.03.43-.05.84c-.11 1.59-.09 3.36-.05 4.96-1.587.08-3.193.134-4.793.187l-1.247.043h-.045c-.237-.001-.551-.003-.645.26-.055.136-.035.309-.017.469.009.075.017.147.017.211.014.195.036.542.058.893a86.584 86.584 0 0 0 .069 1.043c0 .072.001.158.063.294a.439.439 0 0 0 .215.19c.082.036.172.05.245.04l6.15-.57.21 1.62.29 1.6c-.354.077-.756.156-1.167.237l-.015.003c-.71.14-1.443.285-1.998.43l-.013.007-.017.013-.005.003c-.008.006-.017.013-.025.017-.03 0-.05.02-.06.04-.224.207-.122.555-.038.839l.038.131c.057.211.113.453.17.701l.002.004c.092.397.187.81.298 1.135.09.2.38.29.55.25l4.53-1.29c1.116-.32 2.307-.64 3.45-.948l.53-.142a.846.846 0 0 1 .09-.026l.075-.017c.147-.031.311-.066.375-.187l-.02.03Zm73.41 21.29c-2.346-2.079-4.827-3.979-7.308-5.88a442.343 442.343 0 0 1-2.042-1.57.35.35 0 0 0-.187-.063.291.291 0 0 0-.233.093c-.173.201-.345.392-.521.584l-.209.226c-.038.047-.105.114-.18.189-.166.165-.37.368-.37.471-.03.11 0 .26.12.34h-.01c1.504 1.602 3.177 3.035 4.85 4.468l.008.007c1.093.936 2.186 1.873 3.232 2.855l.416.401c.169.164.337.328.424.409.053.053.118.118.19.167.062.043.13.073.2.073.005 0 .01.003.015.005a.03.03 0 0 0 .015.005c.183.008.304-.122.414-.24l.011-.013.055-.057.33-.35c.128-.149.297-.328.472-.514.248-.264.508-.539.678-.756.12-.18.09-.46-.08-.61-.035-.035-.133-.113-.209-.174l-.081-.066Zm9.88-18.55c-.069-.115-.185-.142-.289-.166a86.485 86.485 0 0 1-3.358-.958 212 212 0 0 0-1.296-.386c-.409-.12-.818-.237-1.227-.35a43.846 43.846 0 0 0 .363-1.574l.007-.011a.043.043 0 0 0 .01-.025l.2-1.17.09-.58c0-.07.015-.14.03-.211.014-.065.028-.131.03-.198a.437.437 0 0 0-.1-.301c-.077-.146-.365-.174-.604-.197a105.828 105.828 0 0 1-5.206-.723.402.402 0 0 0-.35.14 1.326 1.326 0 0 0-.099.311c-.02.092-.037.19-.053.284a4.187 4.187 0 0 1-.058.295c-.22 1.1-.51 2.3-.85 3.36l-.34 1.11c-.05.1-.06.34.02.46.08.17.32.24.37.25l.55.18c3.66 1.19 7.4 2.36 11.12 3.31.21.054.33-.037.404-.178a1.46 1.46 0 0 0 .116-.412l.19-.74.2-.74a1.12 1.12 0 0 1 .038-.152l.023-.07c.031-.099.066-.206.08-.304.013-.091.009-.174-.031-.234l.02-.02Zm-16.24-31.65a1.133 1.133 0 0 1-.121.077c-.106.063-.216.127-.259.263-.02.08 0 .16.03.22.7 1.2 1.4 2.57 1.9 3.85l.27.66.036.093c.069.18.152.397.364.447l.052.01c.084.017.136.027.288-.04l-.03.02a87.06 87.06 0 0 0 4.66-2c.066-.037.14-.067.216-.098l.004-.001c.185-.074.375-.15.46-.341a.334.334 0 0 0 .021-.227 1.03 1.03 0 0 0-.108-.251l-.031-.056-.022-.046-.019-.038c-.141-.289-.29-.595-.432-.896-.054-.117-.108-.232-.159-.346 1.46-.73 3.08-1.48 4.57-2.15l.502-.223.668-.297a.43.43 0 0 0 .25-.48.205.205 0 0 0 .006-.049.153.153 0 0 0-.016-.071l-.57-1.18-.29-.59a.804.804 0 0 1-.043-.075c-.02-.041-.038-.084-.056-.127-.074-.178-.15-.359-.401-.438a.617.617 0 0 0-.37.03c-.388.199-.901.471-1.412.742l-.125.067-.519.275-.714.376-2.7 1.48a25.61 25.61 0 0 0-.228-.382l-.189-.313c-.079-.13-.158-.259-.233-.385-.018-.027-.035-.056-.053-.086l-.007-.013c-.089-.152-.186-.32-.39-.361a.4.4 0 0 0-.289.017c-.089.036-.173.093-.25.145l-.071.048-.42.28c-.226.147-.602.398-1.005.667l-.056.038c-.546.363-1.129.753-1.449.955l-.85.53-.41.27Zm-5.76-6.33c.39.41.79.86 1.14 1.3.05.07.17.16.28.17a.376.376 0 0 0 .218-.052c.074-.04.139-.098.202-.153.054-.048.107-.094.16-.125 1.058-.793 1.99-1.727 2.921-2.661l.007-.007c.404-.405.808-.809 1.222-1.202.07-.05.18-.18.17-.31 0-.158-.11-.265-.215-.368-.055-.053-.108-.104-.145-.162-.34-.36-.67-.74-1-1.12-.13-.21-.46-.39-.71-.16l-.09.08c-.3-.31-.83-.85-1.05-1.06a.627.627 0 0 0-.33-.21.487.487 0 0 0-.215-.004.442.442 0 0 0-.285.184l.02-.03c-1.21 1.26-2.4 2.55-3.47 3.94l-.024.03c-.189.227-.442.531-.116.78.39.32.9.76 1.31 1.14Zm-6.61-19.67c-.74-.29-1.47-.59-2.2-.91 0 0-.01-.02-.03-.03-.16-.07-.36 0-.44.18-.58 1.4-1.24 3.01-1.78 4.44l-.49 1.38c-1.08-.35-2.54-.73-3.61-.99-.14-.03-.37.06-.43.24l-.1.39c-.28 1.18-.66 2.59-.99 3.77l-.111.39c-.076.274-.165.59-.209.73a.944.944 0 0 0-.048.195c-.014.106-.006.217.048.295.074.126.191.158.308.191.041.012.082.023.122.04 1.6.48 3.2 1.06 4.75 1.709.06.04.39.16.6 0 .129-.086.176-.203.222-.318.017-.045.035-.09.058-.132 1.144-2.56 2.153-5.174 3.162-7.786l.007-.02c.391-1.012.782-2.024 1.181-3.034l.045-.106c.097-.22.215-.486-.075-.614l.01-.01Zm-42.38 73.95c0-.07-.04-.15-.1-.2l-.359-.316-.006-.004c-.567-.499-1.13-.994-1.665-1.53-1.78-1.76-3.32-3.75-4.72-5.82l-.1-.14a.513.513 0 0 0-.417-.29.454.454 0 0 0-.323.08l-.65.444c-.787.538-1.581 1.08-2.365 1.628a107.505 107.505 0 0 0-1.285.913l-.004.003c-.116.082-.232.163-.296.212-.33.28-.1.6.1.84l.237.322c.19.255.424.57.563.768l-3.11 2.37a9.342 9.342 0 0 1-.215.16l-.305.224c-.555.405-1.334.973-1.51 1.156-.13.19.01.42.13.56l.61.8.61.8c.09.17.31.36.55.27a1.02 1.02 0 0 0 .3-.2c.048-.042.095-.083.15-.12.96-.76 3.4-2.72 4.53-3.63l1.01 1.18 1.04 1.12-2.09 2.09c-.02.02-.09.08-.11.11-.22.2-.18.61.03.77.1.09.62.59.73.7l.59.56c.25.28.67.63 1.03.19-.047.051.236-.268.612-.695l.223-.251c.472-.535 1.012-1.146 1.245-1.414l1.19.96s.02.03.03.04h.04c.17.09.41.06.52-.09.58-.75 2.11-2.71 2.7-3.41l.45-.56a1.5 1.5 0 0 1 .138-.171c.072-.083.152-.173.203-.262a.31.31 0 0 0 .049-.187l.02.02Zm10.58 5.92c-2.74-1.01-5.31-2.42-7.68-4.1-.015-.008-.03-.019-.047-.031a.552.552 0 0 0-.323-.119c-.16 0-.34.13-.4.23l-.583.839-.01.015c-.688.988-1.369 1.965-2.037 3.046-.41.85.11 1.83.94 2.15l1.92 1.09a259.951 259.951 0 0 1-2.823 5.333c-.117.199-.273.468-.057.667.091.068.43.24.718.386l.229.116c.081.042.147.077.183.098.05.023.134.066.235.12l.168.092c.282.152.613.331.737.368.302.103.447-.202.559-.436l.004-.008a1245.934 1245.934 0 0 0 1.903-3.807l.754-1.509c.79.38 2.1.94 2.93 1.27-.15.39-1.1 2.93-1.1 2.93a.575.575 0 0 0-.025.105.574.574 0 0 0 .035.315c.04.103.141.186.232.238.069.04.132.062.158.062.074.026.19.064.315.104l.028.009c.204.066.431.139.557.187l1.19.4.015.003a.57.57 0 0 0 .435-.063c.12-.05.21-.26.23-.34.166-.518.403-1.314.62-2.04.097-.324.189-.634.27-.9.36.09 1.55.41 1.55.41.12.03.24-.04.27-.16l1.39-5.95s-.004-.026-.016-.048c-.007-.015-.019-.028-.034-.032-.87-.21-2.6-.73-3.44-1.04Zm25.48 6.12c-.52-1.71-1-3.44-1.46-5.17-.009-.023-.014-.044-.019-.065l-.007-.033c-.015-.067-.03-.137-.104-.252-.16-.27-.54-.18-.78-.1-1.97.54-4.1 1.03-6.12 1.33-.074.019-.176.031-.286.044-.16.018-.338.039-.474.088-.111.039-.194.097-.22.188a.299.299 0 0 0-.041.158c0 .049.006.099.012.147l.009.075.15 1.25c.1.84.19 1.67.26 2.51l.014.169c.031.374.063.769.306 1.081.26.37.7.61 1.16.62.01 0 .02-.01.03-.02a41.765 41.765 0 0 0 1.761-.263l.024-.004c.364-.06.727-.119 1.095-.173l1.46-.24c.44-.08.68.18.75.63l.13.531c.277 1.123.738 2.997.95 3.749l.19.71.021.083c.054.213.121.479.359.567.064.03.139.039.196.041.04.001.071-.001.084-.001a31.531 31.531 0 0 0 1.758-.511c.204-.064.407-.127.612-.189.22-.03.47-.35.38-.59-.262-.772-.535-1.545-.808-2.32a118.137 118.137 0 0 1-1.382-4.07l-.01.03Zm16.19-9.22c-.715-.827-1.509-1.591-2.301-2.353-.616-.593-1.232-1.186-1.809-1.807-.12-.15-.37-.12-.47.01-.63.52-1.3 1.02-1.98 1.47a13.533 13.533 0 0 0-.82.59c-.006.006-.008.014-.011.025a.195.195 0 0 1-.009.025c-.16.16-.2.38-.07.61.411.564.893 1.14 1.374 1.715.501.599 1.003 1.199 1.426 1.785l.46.63.23.33c.06.083.166.123.273.126a.4.4 0 0 0 .237-.066l1.29-.92.06.08c.084.11.214.165.344.173a.496.496 0 0 0 .356-.113l1.465-1.226.005-.004c.3-.18.42-.6.15-.87l-.2-.21Zm14.23-31.16-.005-.533-.004-.386-.001-.201v-1.1c.04-.17-.12-.45-.34-.47-.075-.006-.118-.004-.16-.003a.976.976 0 0 1-.08.003c-1.98 0-3.97.07-5.95.2-.26-.03-.55.27-.51.55v.22l.034.356c.101 1.045.203 2.104.176 3.154-.01.16.12.33.28.33.767.041 1.532.13 2.298.219 1.111.13 2.223.259 3.342.241.24-.03.39-.24.4-.43 0-.31-.01-.62-.02-.93a38.727 38.727 0 0 1-.017-.59 19.185 19.185 0 0 1-.003-.34c.21 0 .5-.02.54-.29h.02Zm-43.105-42.694a.226.226 0 0 0-.215-.086c-.38-.06-.806-.062-1.228-.063H127.64c-.183 0-.364 0-.54-.007-.03-2.11-.1-4.21-.24-6.31 0-.17-.12-.35-.28-.42-.103-.055-.207-.042-.305-.028l-.049.005-.026.003-2.34.26c-.18.01-.36.2-.34.41.299 2.301.471 4.63.643 6.958.121 1.638.242 3.275.407 4.902l.04.42c.02.28.34.49.56.46.3-.017.599-.043.898-.07l.041-.004c.533-.048 1.065-.096 1.601-.096.2 0 .75-.02.95-.03h.16c.24.03.58-.17.59-.45a84.745 84.745 0 0 0-.039-1.998c-.022-.744-.051-1.491-.08-2.229l-.021-.563-.03-.63-.01-.02c.006-.127-.012-.307-.095-.413Zm-6.515.424a.394.394 0 0 0-.21-.06c-.508.087-1.027.132-1.545.177-.195.017-.391.034-.585.053-.15.01-.29.13-.35.27-.068.196-.017.418.029.622.023.099.044.193.051.278.087.415.193.83.304 1.247l.11.409c.225.834.452 1.672.566 2.514.006.06.037.261.063.43l.037.24c.03.2.29.34.44.32.185-.019.377-.042.572-.067.262-.034.528-.073.784-.11l.164-.023.25-.04c.28 0 .57-.31.5-.6-.18-1.57-.49-3.16-.9-4.69-.038-.104-.058-.24-.079-.38-.036-.235-.072-.477-.191-.59h-.01Z" clip-rule="evenodd"/>
</svg>
